<svg xmlns="http://www.w3.org/2000/svg" width="216" height="97"><path fill="#FFF" d="M15.8 24.75c0-.3.033-.55.1-.75v-.6.6c-.067.2-.1.45-.1.75s-.067.617-.2.95c0 .4-.1.8-.3 1.2-.133.267-.233.5-.3.7-.067.2-.167.433-.3.7a11.54 11.54 0 0 1-.95 1.4 5.207 5.207 0 0 1-1.35 1.2c-1.2.867-2.467 1.4-3.8 1.6H7.45a7 7 0 0 1-1.15-.1c-.8-.2-1.5-.533-2.1-1a5.545 5.545 0 0 1-1.6-1.7c0-.067-.017-.117-.05-.15-.033-.033-.05-.083-.05-.15l-.2-.3c0-.067-.067-.233-.2-.5l-.3-1.2c-.067-.133-.1-.333-.1-.6v-.3l-.1-.2v-1.4c.067-.467.133-.9.2-1.3s.167-.8.3-1.2l.4-1.2.4-1.2c.2-.4.4-.783.6-1.15.2-.367.4-.75.6-1.15.467-.733.933-1.417 1.4-2.05.467-.633.967-1.283 1.5-1.95.533-.6 1.067-1.183 1.6-1.75a75.882 75.882 0 0 1 1.6-1.65l.35-.35.35-.35a2.36 2.36 0 0 1 1.4-.55c.533-.033 1.033.15 1.5.55l4.3 3.7c1.067.933 1.6 2.1 1.6 3.5v23.3c-3.467-.4-6.383-.233-8.75.5s-4.267 1.8-5.7 3.2a12.23 12.23 0 0 0-3.1 4.95c-.633 1.9-.95 3.783-.95 5.65 0 1.067.2 2.133.6 3.2a9.763 9.763 0 0 0 1.7 2.9A10.193 10.193 0 0 0 6 62.65c.933.567 1.967.85 3.1.85-1.267-.267-2.367-.767-3.3-1.5-.867-.667-1.633-1.6-2.3-2.8-.667-1.2-1-2.867-1-5 0-1.867.467-3.417 1.4-4.65.933-1.233 2.2-2.083 3.8-2.55 1.6-.467 3.433-.517 5.5-.15s4.233 1.25 6.5 2.65v44.7c0 .533.217.983.65 1.35.433.367.917.517 1.45.45.933-.133 1.467-.667 1.6-1.6.067-.533-.083-1.017-.45-1.45-.367-.433-.817-.65-1.35-.65-.267 0-.467.033-.6.1 0-3 .417-5.65 1.25-7.95s1.9-4.15 3.2-5.55c1.3-1.4 2.7-2.317 4.2-2.75 1.5-.433 2.917-.25 4.25.55-.2-.6-.533-1.133-1-1.6-.4-.4-.933-.8-1.6-1.2-.667-.4-1.5-.733-2.5-1V53.3l4.3 2.2c.067-.067.583-.733 1.55-2 .967-1.267 2.25-2.633 3.85-4.1v18.4c-.667-.133-1.283-.117-1.85.05a5.295 5.295 0 0 0-1.45.65 4.97 4.97 0 0 0-1.3 1.1c.6-.333 1.167-.483 1.7-.45a7.05 7.05 0 0 1 1.5.25c.467.267.933.567 1.4.9l6 5.7c.267-1 .833-2.017 1.7-3.05A45.703 45.703 0 0 1 48.9 70l2.5-2.5c.733-.733 1.1-1.267 1.1-1.6l-.8.7a3 3 0 0 1-1.85.6c-.7 0-1.317-.233-1.85-.7l-.4-.4V48.8c0-1.667.8-2.767 2.4-3.3l1.3-.5-1.3-.5c-.733-.267-1.317-.7-1.75-1.3a3.337 3.337 0 0 1-.65-2V11.7c1.933-.733 3.333-1.55 4.2-2.45.867-.9 1.467-1.75 1.8-2.55.333-.867.4-1.767.2-2.7 0 1.2-.333 2.067-1 2.6-.667.533-1.367.867-2.1 1-.933.2-1.967.167-3.1-.1L34.3 2.4c-.733-.333-1.3-.8-1.7-1.4l-.2.65c-.133.433-.383 1-.75 1.7s-.9 1.5-1.6 2.4c-.7.9-1.65 1.85-2.85 2.85l-7.5-7-.4-.6c0 .067-.033.1-.1.1a1.567 1.567 0 0 1-.4.3c-.267.2-.733.567-1.4 1.1-1.4 1-3.033 2.367-4.9 4.1a62.688 62.688 0 0 0-3.1 2.9c-.533.533-1.05 1.1-1.55 1.7-.5.6-1.017 1.233-1.55 1.9a29.282 29.282 0 0 0-1.5 2.05c-.467.7-.933 1.417-1.4 2.15l-1.2 2.4-.4 1.2c-.133.4-.267.833-.4 1.3-.133.467-.233.917-.3 1.35A8.87 8.87 0 0 0 1 24.9v1.3l.1.2v.4c.067.2.1.433.1.7.067.2.133.417.2.65.067.233.133.45.2.65l.3.6.1.3.2.2c.2.4.467.75.8 1.05.333.3.667.583 1 .85a5.375 5.375 0 0 0 2.3.9c.733.2 1.5.233 2.3.1a9.45 9.45 0 0 0 3.9-1.7 7.18 7.18 0 0 0 1.35-1.3c.367-.467.683-.967.95-1.5.133-.2.233-.417.3-.65a2.33 2.33 0 0 1 .3-.65c.067-.333.167-.767.3-1.3.067-.333.117-.65.15-.95.033-.3.05-.55.05-.75m74.2 42.5.8-.7c0 .333-.367.867-1.1 1.6l-2.5 2.5a45.703 45.703 0 0 0-2.7 2.95c-.867 1.033-1.433 2.05-1.7 3.05l-6-5.6V52.1l-9.7-3.7V66l.5.4c.533.467 1.133.717 1.8.75.667.033 1.267-.183 1.8-.65l.8-.7c0 .333-.367.867-1.1 1.6l-2.5 2.5a45.703 45.703 0 0 0-2.7 2.95c-.867 1.033-1.433 2.05-1.7 3.05l-6-5.6V51.6c1.6-.133 3-.633 4.2-1.5a99.708 99.708 0 0 0 3.2-2.4l-5.4-2.1-.8-.2-.45-.15c-.3-.1-.65-.117-1.05-.05s-.817.25-1.25.55c-.433.3-.75.883-.95 1.75-.067-.8.033-1.533.3-2.2.2-.533.55-1.067 1.05-1.6.5-.533 1.25-.9 2.25-1.1V26.9a6.329 6.329 0 0 1-1.4-.6c-.4-.2-.8-.433-1.2-.7a3.2 3.2 0 0 1-1-1.1l5.3-8c1.733 1.8 3.2 3.083 4.4 3.85 1.2.767 2.233 1.217 3.1 1.35.933.2 1.767.1 2.5-.3-.2.4-.433.733-.7 1-.2.267-.467.55-.8.85-.333.3-.667.55-1 .75v.1L68.3 39l9.7 3.8V26.9a6.329 6.329 0 0 1-1.4-.6c-.4-.2-.8-.433-1.2-.7a3.2 3.2 0 0 1-1-1.1l5.3-8c1.733 1.8 3.2 3.083 4.4 3.85 1.2.767 2.233 1.217 3.1 1.35.933.2 1.767.1 2.5-.3-.2.4-.433.733-.7 1-.2.267-.467.55-.8.85-.333.3-.667.55-1 .75l-.1 15.1a6.43 6.43 0 0 0-2.25.6 12.5 12.5 0 0 0-1.95 1.15c-.6.433-1.167.883-1.7 1.35-.533.467-1.033.867-1.5 1.2l5.4 2.1.8.3c.533.2 1.033.267 1.5.2.4-.067.8-.25 1.2-.55.4-.3.733-.883 1-1.75a4.483 4.483 0 0 1-.3 2.1c-.2.533-.55 1.083-1.05 1.65S87 48.367 86 48.5V66l.4.4c.533.467 1.15.717 1.85.75a2.53 2.53 0 0 0 1.85-.65Zm18.8-50 .7.4 13.5 5.2.8.2.45.15c.3.1.65.133 1.05.1s.817-.217 1.25-.55c.433-.333.75-.933.95-1.8.067.8-.033 1.533-.3 2.2-.2.533-.55 1.083-1.05 1.65s-1.25.917-2.25 1.05v3.4c0 1.133.567 1.933 1.7 2.4-2.2 0-4.1.717-5.7 2.15a42.718 42.718 0 0 0-4.6 4.85 66.859 66.859 0 0 1-4.55 5.05c-1.567 1.567-3.45 2.483-5.65 2.75v18l9.7 3.7v-5.3c0-1.2-.567-1.967-1.7-2.3 2.067 0 3.633-.45 4.7-1.35 1.067-.9 2.017-1.9 2.85-3a39.777 39.777 0 0 1 2.55-3.05c.867-.933 2.133-1.4 3.8-1.4-1.4.333-2.267 1.117-2.6 2.35-.333 1.233-.5 2.817-.5 4.75v7.3c-2.533.267-4.633.95-6.3 2.05-1.667 1.1-2.983 2.283-3.95 3.55-.967 1.267-1.633 2.4-2 3.4l-.55 1.5-.7-.4L97 70.3l-.8-.2-.45-.15c-.3-.1-.65-.117-1.05-.05s-.817.25-1.25.55c-.433.3-.75.883-.95 1.75-.067-.8.033-1.533.3-2.2.2-.533.55-1.067 1.05-1.6.5-.533 1.25-.9 2.25-1.1V48.2c0-1.667-.833-2.733-2.5-3.2l.1-.1c.733-.2 1.317-.6 1.75-1.2.433-.6.65-1.267.65-2V27c2.533-.267 4.633-.95 6.3-2.05 1.667-1.1 2.983-2.283 3.95-3.55.967-1.267 1.633-2.4 2-3.4l.55-1.5ZM28.8 10l9.7 3.8v33.4l-9.7-3.8V10Zm86.1 18.7-9.7-3.8v19.6c1.067-.267 2.167-.833 3.3-1.7a20.531 20.531 0 0 0 3.15-3 16.283 16.283 0 0 0 2.35-3.6c.6-1.267.9-2.5.9-3.7v-3.8ZM216 66.848 210.67 72h-24.896l-5.33-5.152V57.65h7.766v7.875h20.1V49.7h-22.308l-5.253-5.078V26.078L186.002 21h24.44l5.33 5.078v10.23h-7.766v-8.832h-19.567v15.75h22.231l5.33 5.15v18.472Zm-43.778 0L166.806 72H139.34L134 66.848v-40.77L139.34 21h27.466l5.416 5.078v40.77ZM163.333 28h-22.222v37h22.222V28Z"/></svg>