<svg xmlns="http://www.w3.org/2000/svg" viewBox="0 0 17 24" width="17" height="24"><path fill="#FFF" fill-rule="nonzero" d="M1 1.92c-.552 0-1 .43-1 .96v20.16c0 .53.448.96 1 .96h15c.552 0 1-.43 1-.96V2.88c0-.53-.448-.96-1-.96h-3V.96c0-.53-.448-.96-1-.96H5c-.552 0-1 .43-1 .96v.96H1Zm0 .96h3v.96c0 .53.448.96 1 .96h7c.552 0 1-.43 1-.96v-.96h3v3.84h-3v1.92h3v.96h-1v.96h1v12.48H1V2.88ZM5 .96h7v2.88H5V.96ZM3 16.32c0-2.916 2.462-5.28 5.5-5.28s5.5 2.364 5.5 5.28c0 2.916-2.462 5.28-5.5 5.28S3 19.236 3 16.32Zm1.959 0c0 2.386 1.056 3.947 3.541 3.947s3.658-1.474 3.658-3.86-1.173-3.86-3.658-3.86-3.541 1.387-3.541 3.773ZM5 6.72H3c-.552 0-1 .43-1 .96V9.6c0 .53.448.96 1 .96h2c.552 0 1-.43 1-.96V7.68c0-.53-.448-.96-1-.96Zm0 .96V9.6H3V7.68h2Z"/></svg>